<svg xmlns="http://www.w3.org/2000/svg" viewBox="0 0 1200 800" role="img" aria-labelledby="title desc">
  <title id="title">Soft seaside wedding bouquet</title>
  <desc id="desc">Illustration of a bouquet with shell pink and seafoam blooms tied with a ribbon.</desc>
  <defs>
    <radialGradient id="bouquet-bg" cx="0.5" cy="0.4" r="0.7">
      <stop offset="0%" stop-color="#FFFFFF" />
      <stop offset="100%" stop-color="#E7F3FA" />
    </radialGradient>
  </defs>
  <rect width="1200" height="800" fill="url(#bouquet-bg)" />
  <g stroke="#0E2B3E" stroke-linecap="round" stroke-width="6" opacity="0.4">
    <path d="M480 320 C 520 520 580 600 600 680" />
    <path d="M640 320 C 600 510 580 600 560 700" />
    <path d="M560 360 C 580 540 620 620 640 700" />
  </g>
  <g>
    <circle cx="520" cy="320" r="90" fill="#F7D6E0" opacity="0.9" />
    <circle cx="620" cy="300" r="70" fill="#CDE7E2" opacity="0.9" />
    <circle cx="580" cy="390" r="80" fill="#F5EEDA" opacity="0.9" />
    <circle cx="660" cy="380" r="60" fill="#7FB3D5" opacity="0.8" />
    <circle cx="500" cy="400" r="65" fill="#F7D6E0" opacity="0.8" />
  </g>
  <path d="M520 520 C 580 560 620 560 680 520" fill="none" stroke="#F7D6E0" stroke-width="20" stroke-linecap="round" opacity="0.7" />
  <path d="M540 540 Q 600 620 520 640" fill="none" stroke="#7FB3D5" stroke-width="16" opacity="0.6" stroke-linecap="round" />
  <path d="M660 540 Q 600 620 680 640" fill="none" stroke="#CDE7E2" stroke-width="16" opacity="0.6" stroke-linecap="round" />
</svg>
