<svg xmlns="http://www.w3.org/2000/svg" viewBox="0 0 1200 800" role="img" aria-labelledby="title desc">
  <title id="title">Seaside bunting along a pier</title>
  <desc id="desc">Stylised pier with pastel bunting flags fluttering against a bright sky.</desc>
  <defs>
    <linearGradient id="pier-sky" x1="0" x2="0" y1="0" y2="1">
      <stop offset="0%" stop-color="#E7F3FA" />
      <stop offset="100%" stop-color="#CDE7E2" />
    </linearGradient>
    <linearGradient id="pier-water" x1="0" x2="1" y1="0" y2="0">
      <stop offset="0%" stop-color="#7FB3D5" />
      <stop offset="100%" stop-color="#4F8CA5" />
    </linearGradient>
  </defs>
  <rect width="1200" height="800" fill="url(#pier-sky)" />
  <rect y="540" width="1200" height="260" fill="url(#pier-water)" />
  <g fill="#0E2B3E">
    <rect x="160" y="360" width="40" height="200" rx="12" opacity="0.25" />
    <rect x="420" y="330" width="40" height="230" rx="12" opacity="0.3" />
    <rect x="680" y="340" width="40" height="220" rx="12" opacity="0.22" />
    <rect x="940" y="350" width="40" height="210" rx="12" opacity="0.28" />
  </g>
  <path d="M120 280 L 1080 220" stroke="#0E2B3E" stroke-width="8" stroke-linecap="round" />
  <g>
    <path d="M160 280 L 220 360 L 100 360 Z" fill="#F7D6E0" />
    <path d="M320 260 L 380 340 L 260 340 Z" fill="#CDE7E2" />
    <path d="M480 240 L 540 320 L 420 320 Z" fill="#F5EEDA" />
    <path d="M640 240 L 700 320 L 580 320 Z" fill="#7FB3D5" />
    <path d="M800 230 L 860 310 L 740 310 Z" fill="#F5EEDA" />
    <path d="M960 220 L 1020 300 L 900 300 Z" fill="#F7D6E0" />
  </g>
  <rect x="80" y="420" width="1040" height="80" rx="24" fill="#F5EEDA" opacity="0.9" />
</svg>
